<svg xmlns="http://www.w3.org/2000/svg" version="1.1" xmlns:xlink="http://www.w3.org/1999/xlink" xmlns:svgjs="http://svgjs.dev/svgjs" width="1500" height="1500" viewBox="0 0 1500 1500"><rect width="1500" height="1500" fill="#000000"></rect><g transform="matrix(0.6666666666666666,0,0,0.6666666666666666,249.7282651008457,410.27530364372467)"><svg viewBox="0 0 363 247" data-background-color="#ffffff" preserveAspectRatio="xMidYMid meet" height="1020" width="1500" xmlns="http://www.w3.org/2000/svg" xmlns:xlink="http://www.w3.org/1999/xlink"><g id="tight-bounds" transform="matrix(1,0,0,1,0.09863976839301358,-0.0999999999999801)"><svg viewBox="0 0 362.802720463214 247.19999999999996" height="247.19999999999996" width="362.802720463214"><g><svg viewBox="0 0 362.802720463214 247.19999999999996" height="247.19999999999996" width="362.802720463214"><g><svg viewBox="0 0 362.802720463214 247.19999999999996" height="247.19999999999996" width="362.802720463214"><g id="textblocktransform"><svg viewBox="0 0 362.802720463214 247.19999999999996" height="247.19999999999996" width="362.802720463214" id="textblock"><g><svg viewBox="0 0 362.802720463214 247.19999999999996" height="247.19999999999996" width="362.802720463214"><g transform="matrix(1,0,0,1,0,0)"><svg width="362.802720463214" viewBox="-2.275957200481571e-15 -38.33 126.27 82.59000000000003" height="247.19999999999996" data-palette-color="#010c80"><svg></svg><svg></svg><g class="wordmark-text-0" data-fill-palette-color="primary" id="text-0"><path d="M26.61-21.97v0c0 2.86-0.587 5.617-1.76 8.27-1.167 2.653-2.737 5.007-4.71 7.06-1.967 2.053-4.26 3.69-6.88 4.91-2.62 1.22-5.38 1.83-8.28 1.83v0h-0.1c-0.587 0-1.067-0.27-1.44-0.81-0.373-0.533-0.69-1.207-0.95-2.02-0.26-0.82-0.457-1.733-0.59-2.74-0.127-1.007-0.223-1.99-0.29-2.95-0.067-0.96-0.1-1.823-0.1-2.59 0-0.767 0-1.343 0-1.73v0c0-1.107 0.017-2.207 0.05-3.3 0.033-1.093 0.083-2.193 0.15-3.3v0c0-0.353 0.023-0.88 0.07-1.58 0.053-0.7 0.11-1.49 0.17-2.37 0.067-0.88 0.15-1.8 0.25-2.76 0.093-0.96 0.197-1.857 0.31-2.69 0.12-0.827 0.237-1.557 0.35-2.19 0.113-0.633 0.25-1.067 0.41-1.3v0c0.427-0.713 1.077-1.347 1.95-1.9 0.88-0.553 1.833-1.01 2.86-1.37 1.027-0.36 2.07-0.627 3.13-0.8 1.053-0.18 1.97-0.27 2.75-0.27v0c2.153 0 4.02 0.397 5.6 1.19 1.573 0.8 2.89 1.877 3.95 3.23 1.06 1.347 1.84 2.9 2.34 4.66 0.507 1.76 0.76 3.6 0.76 5.52zM18.41-20.56v0c0-0.713-0.13-1.443-0.39-2.19-0.26-0.753-0.627-1.437-1.1-2.05-0.473-0.62-1.043-1.117-1.71-1.49-0.667-0.38-1.407-0.57-2.22-0.57v0c-0.687 0-1.387 0.163-2.1 0.49v0c-0.167 0.1-0.313 0.403-0.44 0.91-0.133 0.5-0.24 1.11-0.32 1.83-0.08 0.713-0.153 1.493-0.22 2.34-0.067 0.847-0.107 1.653-0.12 2.42-0.013 0.767-0.03 1.44-0.05 2.02-0.013 0.587-0.02 0.98-0.02 1.18v0c0 0.32 0 0.8 0 1.44 0 0.633 0.023 1.26 0.07 1.88 0.047 0.613 0.103 1.15 0.17 1.61 0.067 0.453 0.18 0.68 0.34 0.68v0c0.98 0 1.95-0.383 2.91-1.15 0.96-0.76 1.83-1.693 2.61-2.8 0.78-1.107 1.407-2.263 1.88-3.47 0.473-1.207 0.71-2.233 0.71-3.08zM49.27-8.69v0c0 1.107-0.35 2.19-1.05 3.25-0.7 1.053-1.58 1.997-2.64 2.83-1.06 0.827-2.19 1.493-3.39 2-1.207 0.507-2.313 0.76-3.32 0.76v0c-1.727 0-3.267-0.433-4.62-1.3-1.347-0.86-2.477-1.957-3.39-3.29-0.913-1.34-1.607-2.813-2.08-4.42-0.467-1.613-0.7-3.183-0.7-4.71v0c0-1.633 0.227-3.377 0.68-5.23 0.453-1.853 1.143-3.563 2.07-5.13 0.933-1.56 2.107-2.86 3.52-3.9 1.413-1.04 3.097-1.56 5.05-1.56v0c1.107 0 2.167 0.187 3.18 0.56 1.007 0.373 1.883 0.9 2.63 1.58 0.753 0.687 1.357 1.503 1.81 2.45 0.46 0.94 0.69 1.997 0.69 3.17v0c0 1.527-0.327 2.96-0.98 4.3-0.653 1.333-1.517 2.487-2.59 3.46-1.073 0.98-2.31 1.77-3.71 2.37-1.4 0.6-2.833 0.933-4.3 1v0c0.133 0.947 0.517 1.63 1.15 2.05 0.633 0.427 1.39 0.64 2.27 0.64v0c0.653 0 1.29-0.163 1.91-0.49 0.613-0.327 1.213-0.693 1.8-1.1 0.587-0.407 1.167-0.773 1.74-1.1 0.567-0.327 1.143-0.49 1.73-0.49v0c0.653 0 1.24 0.213 1.76 0.64 0.52 0.42 0.78 0.973 0.78 1.66zM41.36-20.65v0c0-0.427-0.113-0.867-0.34-1.32-0.233-0.46-0.593-0.69-1.08-0.69v0c-0.713 0-1.317 0.19-1.81 0.57-0.487 0.373-0.893 0.843-1.22 1.41-0.32 0.573-0.57 1.183-0.75 1.83-0.18 0.653-0.287 1.257-0.32 1.81v0c0.453-0.1 1-0.23 1.64-0.39 0.633-0.167 1.233-0.387 1.8-0.66 0.573-0.28 1.063-0.63 1.47-1.05 0.407-0.427 0.61-0.93 0.61-1.51zM73.14-4.59v0c0 0.653-0.267 1.223-0.8 1.71-0.54 0.487-1.223 0.927-2.05 1.32-0.833 0.387-1.777 0.71-2.83 0.97-1.06 0.26-2.103 0.473-3.13 0.64-1.027 0.16-1.993 0.283-2.9 0.37-0.913 0.08-1.647 0.12-2.2 0.12v0c-0.553 0-1.327-0.017-2.32-0.05-0.993-0.033-1.977-0.157-2.95-0.37-0.98-0.213-1.827-0.553-2.54-1.02-0.72-0.473-1.08-1.133-1.08-1.98v0c0-0.653 0.23-1.45 0.69-2.39 0.453-0.947 1.037-1.973 1.75-3.08 0.72-1.107 1.52-2.237 2.4-3.39 0.873-1.16 1.733-2.277 2.58-3.35 0.847-1.073 1.647-2.057 2.4-2.95 0.747-0.893 1.33-1.633 1.75-2.22v0c-0.453 0.093-1.03 0.23-1.73 0.41-0.7 0.18-1.423 0.35-2.17 0.51-0.753 0.167-1.48 0.307-2.18 0.42-0.693 0.113-1.287 0.17-1.78 0.17v0c-0.387 0-0.827-0.073-1.32-0.22-0.487-0.147-0.95-0.35-1.39-0.61-0.44-0.26-0.813-0.57-1.12-0.93-0.307-0.353-0.46-0.76-0.46-1.22v0c0-0.587 0.26-1.13 0.78-1.63 0.52-0.507 1.203-0.963 2.05-1.37 0.847-0.407 1.79-0.767 2.83-1.08 1.04-0.307 2.067-0.567 3.08-0.78 1.007-0.207 1.967-0.36 2.88-0.46 0.907-0.1 1.637-0.15 2.19-0.15v0c0.62 0 1.37 0.067 2.25 0.2 0.88 0.127 1.733 0.353 2.56 0.68 0.833 0.327 1.543 0.767 2.13 1.32 0.587 0.553 0.88 1.253 0.88 2.1v0c0 0.26-0.027 0.497-0.08 0.71-0.047 0.207-0.103 0.443-0.17 0.71v0c-0.067 0.227-0.35 0.737-0.85 1.53-0.507 0.8-1.127 1.747-1.86 2.84-0.733 1.087-1.53 2.257-2.39 3.51-0.86 1.253-1.683 2.433-2.47 3.54-0.78 1.107-1.463 2.083-2.05 2.93-0.587 0.847-0.977 1.417-1.17 1.71v0c1.333-0.36 2.693-0.66 4.08-0.9 1.38-0.247 2.753-0.37 4.12-0.37v0c0.327 0 0.75 0.017 1.27 0.05 0.527 0.033 1.033 0.123 1.52 0.27 0.487 0.147 0.91 0.357 1.27 0.63 0.353 0.28 0.53 0.663 0.53 1.15zM94.58-29.2v0c0 0.62-0.057 1.213-0.17 1.78-0.113 0.573-0.317 1.07-0.61 1.49-0.293 0.427-0.683 0.76-1.17 1-0.493 0.247-1.097 0.37-1.81 0.37v0c-0.813 0-1.417-0.163-1.81-0.49-0.387-0.327-0.653-0.727-0.8-1.2-0.147-0.467-0.22-0.977-0.22-1.53 0-0.553-0.023-1.067-0.07-1.54-0.053-0.473-0.177-0.873-0.37-1.2-0.193-0.327-0.553-0.49-1.08-0.49v0c-0.487 0-0.883 0.377-1.19 1.13-0.313 0.747-0.567 1.61-0.76 2.59-0.193 0.973-0.323 1.923-0.39 2.85-0.067 0.927-0.1 1.553-0.1 1.88v0c0.427-0.067 0.833-0.123 1.22-0.17 0.393-0.047 0.817-0.07 1.27-0.07v0c0.46 0 0.933 0.047 1.42 0.14 0.487 0.1 0.943 0.257 1.37 0.47 0.42 0.207 0.76 0.5 1.02 0.88 0.26 0.373 0.39 0.837 0.39 1.39v0c0 0.587-0.25 1.107-0.75 1.56-0.507 0.453-1.11 0.837-1.81 1.15-0.7 0.307-1.407 0.557-2.12 0.75-0.72 0.2-1.29 0.333-1.71 0.4v0c0.093 2.24 0.14 4.5 0.14 6.78v0c0 2.153-0.047 4.27-0.14 6.35v0c-0.067 1.007-0.417 1.837-1.05 2.49-0.64 0.653-1.463 0.98-2.47 0.98v0c-0.553 0-1.027-0.107-1.42-0.32-0.387-0.213-0.71-0.497-0.97-0.85-0.26-0.36-0.463-0.77-0.61-1.23-0.147-0.453-0.237-0.923-0.27-1.41v0c-0.167-1.953-0.297-3.917-0.39-5.89-0.1-1.967-0.133-3.943-0.1-5.93v0c-0.227 0.033-0.447 0.05-0.66 0.05-0.213 0-0.433 0-0.66 0v0c-0.387 0-0.857-0.05-1.41-0.15-0.553-0.093-1.083-0.263-1.59-0.51-0.507-0.24-0.937-0.54-1.29-0.9-0.36-0.36-0.54-0.817-0.54-1.37v0c0-0.713 0.237-1.317 0.71-1.81 0.467-0.487 1.037-0.883 1.71-1.19 0.667-0.313 1.367-0.533 2.1-0.66 0.727-0.133 1.367-0.23 1.92-0.29v0-0.79c0-1.593 0.147-3.3 0.44-5.12 0.293-1.827 0.817-3.52 1.57-5.08 0.747-1.56 1.77-2.853 3.07-3.88 1.307-1.027 2.967-1.54 4.98-1.54v0c1.273 0 2.363 0.27 3.27 0.81 0.913 0.533 1.663 1.233 2.25 2.1 0.587 0.86 1.01 1.833 1.27 2.92 0.26 1.093 0.39 2.193 0.39 3.3zM114.16-13.96v0c0 1.787-0.18 3.56-0.54 5.32-0.353 1.753-0.953 3.323-1.8 4.71-0.847 1.38-1.98 2.493-3.4 3.34-1.413 0.847-3.177 1.27-5.29 1.27v0c-2.087 0-3.83-0.413-5.23-1.24-1.4-0.833-2.513-1.933-3.34-3.3-0.833-1.367-1.42-2.913-1.76-4.64-0.34-1.72-0.51-3.477-0.51-5.27v0c0-1.953 0.227-3.89 0.68-5.81v0c0.1-0.52 0.287-1.243 0.56-2.17 0.28-0.927 0.637-1.84 1.07-2.74 0.44-0.893 0.947-1.667 1.52-2.32 0.567-0.647 1.193-0.97 1.88-0.97v0c0.647 0 1.167 0.177 1.56 0.53 0.393 0.36 0.703 0.81 0.93 1.35 0.227 0.533 0.373 1.103 0.44 1.71 0.067 0.6 0.1 1.143 0.1 1.63v0c0 0.747-0.06 1.48-0.18 2.2-0.113 0.713-0.233 1.43-0.36 2.15v0c-0.133 0.973-0.257 1.95-0.37 2.93-0.113 0.973-0.17 1.95-0.17 2.93v0c0 0.487 0.023 1.03 0.07 1.63 0.053 0.607 0.177 1.187 0.37 1.74 0.193 0.553 0.47 1.017 0.83 1.39 0.36 0.373 0.863 0.56 1.51 0.56v0c0.847 0 1.523-0.227 2.03-0.68 0.507-0.46 0.88-1.03 1.12-1.71 0.247-0.687 0.403-1.42 0.47-2.2 0.067-0.78 0.1-1.497 0.1-2.15v0c0-1.433-0.1-2.84-0.3-4.22-0.193-1.387-0.37-2.797-0.53-4.23v0c-0.033-0.16-0.05-0.387-0.05-0.68v0c0-0.487 0.08-0.977 0.24-1.47 0.16-0.487 0.387-0.923 0.68-1.31 0.293-0.393 0.653-0.713 1.08-0.96 0.42-0.24 0.89-0.36 1.41-0.36v0c0.72 0 1.357 0.25 1.91 0.75 0.553 0.507 1.017 1.16 1.39 1.96 0.373 0.793 0.683 1.687 0.93 2.68 0.24 0.993 0.433 1.97 0.58 2.93 0.147 0.96 0.247 1.863 0.3 2.71 0.047 0.847 0.07 1.517 0.07 2.01zM126.27-29.59v0c0 1.76-0.073 3.527-0.22 5.3-0.147 1.773-0.22 3.553-0.22 5.34v0c0 2.313 0.073 4.627 0.22 6.94 0.147 2.313 0.22 4.64 0.22 6.98v0c0 0.587-0.033 1.247-0.1 1.98-0.067 0.733-0.22 1.407-0.46 2.02-0.247 0.62-0.613 1.143-1.1 1.57-0.487 0.42-1.137 0.63-1.95 0.63v0c-0.787 0-1.463-0.383-2.03-1.15-0.567-0.76-1.04-1.737-1.42-2.93-0.373-1.187-0.68-2.51-0.92-3.97-0.247-1.467-0.427-2.893-0.54-4.28-0.113-1.38-0.197-2.65-0.25-3.81-0.047-1.153-0.07-2.007-0.07-2.56v0c0-0.62 0.023-1.513 0.07-2.68 0.053-1.173 0.16-2.443 0.32-3.81 0.167-1.367 0.387-2.76 0.66-4.18 0.28-1.413 0.647-2.7 1.1-3.86 0.453-1.153 1-2.097 1.64-2.83 0.633-0.733 1.39-1.1 2.27-1.1v0c0.713 0 1.257 0.237 1.63 0.71 0.373 0.473 0.643 1.043 0.81 1.71 0.16 0.667 0.257 1.367 0.29 2.1 0.033 0.733 0.05 1.36 0.05 1.88z" fill="#ffffff" fill-rule="nonzero" stroke="none" stroke-width="1" stroke-linecap="butt" stroke-linejoin="miter" stroke-miterlimit="10" stroke-dasharray="" stroke-dashoffset="0" font-family="none" font-weight="none" font-size="none" text-anchor="none" style="mix-blend-mode: normal" data-fill-palette-color="primary" opacity="1"></path><path d="M23.34 30.78v0c-0.293 1.467-0.757 2.99-1.39 4.57-0.633 1.573-1.447 3.013-2.44 4.32-0.993 1.3-2.173 2.367-3.54 3.2-1.367 0.827-2.93 1.24-4.69 1.24v0c-1.3 0-2.473-0.26-3.52-0.78-1.04-0.52-1.983-1.22-2.83-2.1-0.847-0.88-1.58-1.89-2.2-3.03-0.613-1.14-1.123-2.32-1.53-3.54-0.407-1.22-0.71-2.43-0.91-3.63-0.193-1.207-0.29-2.33-0.29-3.37v0c0-1.467 0.14-3.04 0.42-4.72 0.273-1.673 0.687-3.333 1.24-4.98 0.553-1.64 1.253-3.217 2.1-4.73 0.847-1.513 1.847-2.85 3-4.01 1.16-1.153 2.463-2.08 3.91-2.78 1.447-0.7 3.067-1.05 4.86-1.05v0c1.14 0 2.197 0.22 3.17 0.66 0.98 0.44 1.827 1.027 2.54 1.76 0.713 0.733 1.273 1.603 1.68 2.61 0.413 1.007 0.62 2.063 0.62 3.17v0 0.44c0 0.587-0.027 1.313-0.08 2.18-0.047 0.86-0.2 1.68-0.46 2.46-0.26 0.78-0.65 1.457-1.17 2.03-0.527 0.567-1.26 0.85-2.2 0.85v0c-1.14 0-2.003-0.26-2.59-0.78-0.587-0.52-0.88-1.383-0.88-2.59v0c0-0.453 0.017-0.907 0.05-1.36 0.033-0.46 0.05-0.917 0.05-1.37v0c0-0.687-0.113-1.217-0.34-1.59-0.227-0.373-0.7-0.56-1.42-0.56v0c-0.813 0-1.547 0.26-2.2 0.78-0.647 0.52-1.213 1.203-1.7 2.05-0.493 0.847-0.917 1.807-1.27 2.88-0.36 1.073-0.653 2.157-0.88 3.25-0.227 1.093-0.39 2.143-0.49 3.15-0.1 1.007-0.15 1.87-0.15 2.59v0c0 0.587 0.033 1.26 0.1 2.02 0.067 0.767 0.207 1.5 0.42 2.2 0.207 0.7 0.523 1.293 0.95 1.78 0.42 0.493 0.973 0.74 1.66 0.74v0c1.173 0 2.117-0.367 2.83-1.1 0.713-0.733 1.2-1.67 1.46-2.81v0c-0.453-0.067-0.9-0.173-1.34-0.32-0.44-0.147-0.847-0.357-1.22-0.63-0.373-0.28-0.673-0.623-0.9-1.03-0.227-0.407-0.34-0.887-0.34-1.44v0c0-1.007 0.34-1.797 1.02-2.37 0.687-0.567 1.493-0.997 2.42-1.29 0.927-0.293 1.877-0.48 2.85-0.56 0.98-0.08 1.763-0.12 2.35-0.12v0c0.42 0 1.037 0.03 1.85 0.09 0.813 0.067 1.62 0.207 2.42 0.42 0.8 0.213 1.493 0.513 2.08 0.9 0.58 0.393 0.87 0.9 0.87 1.52v0c0 1.233-0.333 2.297-1 3.19-0.667 0.9-1.65 1.43-2.95 1.59zM48.24 35.62v0c0 0.58-0.023 1.343-0.07 2.29-0.047 0.947-0.187 1.867-0.42 2.76-0.227 0.893-0.583 1.667-1.07 2.32-0.487 0.647-1.17 0.97-2.05 0.97v0c-1.207 0-2.133-0.39-2.78-1.17-0.653-0.78-0.963-1.757-0.93-2.93v0c-1.04 0.913-2.22 1.63-3.54 2.15-1.32 0.52-2.663 0.78-4.03 0.78v0c-0.947 0-1.843-0.227-2.69-0.68-0.847-0.453-1.593-1.04-2.24-1.76-0.653-0.713-1.173-1.52-1.56-2.42-0.393-0.893-0.59-1.78-0.59-2.66v0c0-1.56 0.48-2.927 1.44-4.1 0.96-1.173 2.14-2.173 3.54-3 1.4-0.833 2.89-1.493 4.47-1.98 1.58-0.487 2.987-0.813 4.22-0.98v0c0-0.16 0.01-0.303 0.03-0.43 0.013-0.133 0.02-0.28 0.02-0.44v0c0-1.013-0.277-1.83-0.83-2.45-0.553-0.613-1.333-0.92-2.34-0.92v0c-0.813 0-1.513 0.137-2.1 0.41-0.587 0.28-1.14 0.59-1.66 0.93-0.52 0.34-1.043 0.65-1.57 0.93-0.52 0.273-1.103 0.41-1.75 0.41v0c-0.72 0-1.33-0.227-1.83-0.68-0.507-0.453-0.76-1.04-0.76-1.76v0c0-1.073 0.317-2.05 0.95-2.93 0.633-0.88 1.43-1.62 2.39-2.22 0.96-0.6 2.003-1.073 3.13-1.42 1.12-0.34 2.153-0.51 3.1-0.51v0c0.88 0 1.76 0.107 2.64 0.32 0.873 0.213 1.703 0.537 2.49 0.97 0.78 0.44 1.487 0.98 2.12 1.62 0.633 0.633 1.147 1.373 1.54 2.22v0c0.587 1.2 1.057 2.477 1.41 3.83 0.36 1.353 0.637 2.737 0.83 4.15 0.2 1.42 0.33 2.837 0.39 4.25 0.067 1.413 0.1 2.79 0.1 4.13zM40.43 34.05v0l-0.15-3.32c-0.06 0-0.123-0.007-0.19-0.02-0.067-0.02-0.133-0.03-0.2-0.03v0c-0.42 0-0.947 0.107-1.58 0.32-0.64 0.213-1.253 0.507-1.84 0.88-0.58 0.373-1.073 0.787-1.48 1.24-0.407 0.46-0.61 0.933-0.61 1.42v0c0 0.453 0.16 0.763 0.48 0.93 0.327 0.16 0.703 0.24 1.13 0.24v0c0.713 0 1.477-0.187 2.29-0.56 0.813-0.373 1.53-0.74 2.15-1.1zM65.48 15.64v0c0 0.947-0.317 1.647-0.95 2.1-0.64 0.46-1.35 0.893-2.13 1.3-0.78 0.407-1.487 0.887-2.12 1.44-0.633 0.553-0.95 1.383-0.95 2.49v0c0 0.587 0.137 1.09 0.41 1.51 0.28 0.427 0.623 0.81 1.03 1.15 0.407 0.34 0.853 0.69 1.34 1.05 0.487 0.36 0.933 0.767 1.34 1.22 0.407 0.453 0.75 1.007 1.03 1.66 0.273 0.653 0.41 1.45 0.41 2.39v0c0 1.367-0.35 2.71-1.05 4.03-0.7 1.32-1.593 2.493-2.68 3.52-1.093 1.027-2.323 1.847-3.69 2.46-1.367 0.62-2.717 0.93-4.05 0.93v0c-0.553 0-1.107-0.04-1.66-0.12-0.553-0.08-1.05-0.237-1.49-0.47-0.44-0.227-0.807-0.543-1.1-0.95-0.293-0.407-0.44-0.933-0.44-1.58v0c0-0.913 0.18-1.623 0.54-2.13 0.353-0.507 0.807-0.903 1.36-1.19 0.553-0.293 1.15-0.523 1.79-0.69 0.633-0.16 1.227-0.363 1.78-0.61 0.553-0.24 1.01-0.557 1.37-0.95 0.353-0.393 0.53-0.947 0.53-1.66v0c0-0.687-0.267-1.393-0.8-2.12-0.54-0.733-1.133-1.517-1.78-2.35-0.653-0.827-1.25-1.713-1.79-2.66-0.533-0.947-0.8-1.987-0.8-3.12v0c0-1.4 0.283-2.697 0.85-3.89 0.573-1.187 1.34-2.22 2.3-3.1 0.96-0.88 2.057-1.57 3.29-2.07 1.24-0.507 2.543-0.76 3.91-0.76v0c0.52 0 1.033 0.05 1.54 0.15 0.5 0.093 0.947 0.263 1.34 0.51 0.393 0.247 0.71 0.573 0.95 0.98 0.247 0.407 0.37 0.917 0.37 1.53zM89.6 29.85v0c0 0.553-0.007 1.377-0.02 2.47-0.02 1.093-0.07 2.233-0.15 3.42-0.08 1.187-0.187 2.31-0.32 3.37-0.127 1.053-0.29 1.827-0.49 2.32v0c-0.26 0.613-0.6 1.15-1.02 1.61-0.427 0.453-0.997 0.68-1.71 0.68v0c-1.107 0-1.903-0.44-2.39-1.32-0.493-0.88-0.82-1.97-0.98-3.27-0.16-1.3-0.227-2.717-0.2-4.25 0.033-1.527 0.02-2.943-0.04-4.25-0.067-1.3-0.247-2.39-0.54-3.27-0.293-0.88-0.83-1.32-1.61-1.32v0c-1.073 0-1.897 0.173-2.47 0.52-0.567 0.34-0.973 0.787-1.22 1.34-0.247 0.553-0.393 1.187-0.44 1.9-0.047 0.72-0.103 1.47-0.17 2.25v0c-0.067 0.747-0.117 1.757-0.15 3.03-0.033 1.267-0.18 2.52-0.44 3.76-0.26 1.233-0.69 2.3-1.29 3.2-0.6 0.893-1.487 1.34-2.66 1.34v0c-0.72 0-1.297-0.277-1.73-0.83-0.44-0.553-0.79-1.27-1.05-2.15-0.26-0.88-0.45-1.857-0.57-2.93-0.113-1.073-0.177-2.123-0.19-3.15-0.02-1.027-0.02-1.963 0-2.81 0.013-0.847 0.02-1.48 0.02-1.9v0c0-0.653 0.027-1.727 0.08-3.22 0.047-1.5 0.15-3.17 0.31-5.01 0.167-1.84 0.38-3.737 0.64-5.69 0.26-1.953 0.6-3.733 1.02-5.34 0.427-1.613 0.94-2.923 1.54-3.93 0.607-1.013 1.317-1.503 2.13-1.47v0c0.52 0.033 0.967 0.26 1.34 0.68 0.373 0.427 0.683 0.973 0.93 1.64 0.24 0.667 0.443 1.39 0.61 2.17 0.16 0.787 0.28 1.56 0.36 2.32 0.087 0.767 0.137 1.477 0.15 2.13 0.013 0.647 0.02 1.15 0.02 1.51v0c0 0.847-0.013 1.693-0.04 2.54-0.033 0.847-0.083 1.693-0.15 2.54v0c0.747-1.013 1.747-1.843 3-2.49 1.253-0.653 2.517-0.98 3.79-0.98v0c1.627 0 2.853 0.447 3.68 1.34 0.833 0.9 1.427 2.007 1.78 3.32 0.36 1.32 0.557 2.72 0.59 4.2 0.033 1.487 0.05 2.813 0.05 3.98zM104.44 44.26v0c-2.307 0-4.103-0.303-5.39-0.91-1.287-0.6-2.247-1.453-2.88-2.56-0.64-1.107-1.023-2.44-1.15-4-0.133-1.567-0.2-3.31-0.2-5.23v0c0-1.527 0.05-3.063 0.15-4.61 0.1-1.547 0.247-3.2 0.44-4.96v0c-0.453 0-0.81 0.01-1.07 0.03-0.26 0.013-0.473 0.02-0.64 0.02v0c-1.04 0-1.943-0.227-2.71-0.68-0.767-0.46-1.15-1.16-1.15-2.1v0c0-0.587 0.22-1.107 0.66-1.56 0.44-0.46 1.003-0.853 1.69-1.18 0.68-0.32 1.42-0.58 2.22-0.78 0.8-0.193 1.557-0.323 2.27-0.39v0c0-0.913 0.067-1.923 0.2-3.03 0.127-1.107 0.36-2.14 0.7-3.1 0.347-0.96 0.81-1.763 1.39-2.41 0.587-0.653 1.337-0.98 2.25-0.98v0c0.52 0 0.983 0.153 1.39 0.46 0.407 0.313 0.74 0.707 1 1.18 0.26 0.467 0.457 0.993 0.59 1.58 0.127 0.587 0.19 1.157 0.19 1.71v0c0 0.653-0.047 1.32-0.14 2-0.1 0.687-0.28 1.533-0.54 2.54v0c0.553-0.06 0.927-0.1 1.12-0.12 0.2-0.013 0.38-0.02 0.54-0.02v0c0.553 0 1.13 0.047 1.73 0.14 0.607 0.1 1.16 0.263 1.66 0.49 0.507 0.227 0.923 0.527 1.25 0.9 0.327 0.38 0.49 0.83 0.49 1.35v0c0 0.587-0.237 1.107-0.71 1.56-0.473 0.453-1.067 0.843-1.78 1.17-0.72 0.327-1.487 0.58-2.3 0.76-0.813 0.18-1.577 0.3-2.29 0.36v0c-0.193 1.34-0.333 2.57-0.42 3.69-0.08 1.127-0.17 2.257-0.27 3.39v0c-0.06 0.553-0.117 1.117-0.17 1.69-0.047 0.567-0.07 1.143-0.07 1.73v0c0 0.427 0.017 0.923 0.05 1.49 0.033 0.573 0.147 1.12 0.34 1.64 0.193 0.52 0.503 0.967 0.93 1.34 0.42 0.373 1.007 0.56 1.76 0.56v0c0.453 0 0.923-0.04 1.41-0.12 0.487-0.08 0.977-0.12 1.47-0.12v0c0.847 0 1.457 0.293 1.83 0.88 0.373 0.587 0.56 1.333 0.56 2.24v0c0 0.687-0.203 1.28-0.61 1.78-0.407 0.507-0.92 0.917-1.54 1.23-0.62 0.307-1.31 0.54-2.07 0.7-0.767 0.167-1.493 0.25-2.18 0.25z" fill="#ffffff" fill-rule="nonzero" stroke="none" stroke-width="1" stroke-linecap="butt" stroke-linejoin="miter" stroke-miterlimit="10" stroke-dasharray="" stroke-dashoffset="0" font-family="none" font-weight="none" font-size="none" text-anchor="none" style="mix-blend-mode: normal" data-fill-palette-color="primary" opacity="1"></path></g></svg></g></svg></g></svg></g></svg></g></svg></g><defs></defs></svg><rect width="362.802720463214" height="247.19999999999996" fill="none" stroke="none" visibility="hidden"></rect></g></svg></g></svg>